<svg class="svg-icon" style="width: 1em;height: 1em;vertical-align: middle;fill: currentColor;overflow: hidden;" viewBox="0 0 1024 1024" version="1.1" xmlns="http://www.w3.org/2000/svg"><path d="M164.352 547.712a242.6112 242.6112 0 0 0 79.36 179.6608 190.72 190.72 0 0 0 165.5552 164.2496l11.1616 55.7568c1.9456 41.6768 46.1824 73.9328 102.3232 73.9328 56.1408 0 100.3776-32.256 102.3232-73.9328l11.1872-55.7568a190.72 190.72 0 0 0 165.504-164.2496 242.5344 242.5344 0 0 0 79.3856-179.6608c0-14.4384-1.408-29.184-4.1472-43.9552a216.6016 216.6016 0 0 0 29.7472-109.6448 217.088 217.088 0 0 0-123.648-196.3008C740.0192 92.7744 636.7744 22.912 522.752 22.912c-113.9968 0-217.2416 69.8368-260.352 174.8992a217.1392 217.1392 0 0 0-123.648 196.3008c0 38.6816 10.24 76.3648 29.7472 109.6448a241.5104 241.5104 0 0 0-4.1472 43.9552" fill="#88C057" /><path d="M299.8528 388.8128a25.5744 25.5744 0 0 1 36.1984 0l102.4 102.4a25.5744 25.5744 0 1 1-36.1984 36.1984l-102.4-102.4a25.5744 25.5744 0 0 1 0-36.1984z m248.4992 376.4992a25.6 25.6 0 1 1-51.2 0v-512a25.6 25.6 0 1 1 51.2 0v512z m197.2992-376.4992a25.5744 25.5744 0 0 1 0 36.1984l-102.4 102.4a25.5232 25.5232 0 0 1-36.1984 0 25.5744 25.5744 0 0 1 0-36.1984l102.4-102.4a25.5744 25.5744 0 0 1 36.1984 0z" fill="#659C35" /></svg>